<svg xmlns="http://www.w3.org/2000/svg" xmlns:xlink="http://www.w3.org/1999/xlink" width="63.961" height="69.234" viewBox="0 0 63.961 69.234">
  <defs>
    <linearGradient id="linear-gradient" x1="0.16" y1="-0.214" x2="0.809" y2="1" gradientUnits="objectBoundingBox">
      <stop offset="0" stop-color="#8246af"/>
      <stop offset="1" stop-color="#46c8e1"/>
    </linearGradient>
  </defs>
  <path id="Icon_metro-water" data-name="Icon metro-water" d="M35.318,33.02C33.549,47.265,24.514,49.8,24.514,59.7a11.212,11.212,0,0,0,22.422,0c0-9.9-9.035-12.438-10.8-26.684a.419.419,0,0,0-.814,0ZM14.55,1.863c-1.769,14.245-10.8,16.776-10.8,26.684a11.21,11.21,0,0,0,22.419,0c0-9.9-9.035-12.438-10.8-26.684a.416.416,0,0,0-.81,0Zm41.542,0c-1.769,14.245-10.8,16.78-10.8,26.684a11.21,11.21,0,0,0,22.419,0c0-9.9-9.035-12.438-10.8-26.684a.416.416,0,0,0-.81,0Z" transform="translate(-3.746 -1.544)" fill="url(#linear-gradient)"/>
</svg>
