<?xml version="1.0" encoding="utf-8"?>
<!-- Generator: Adobe Illustrator 25.3.1, SVG Export Plug-In . SVG Version: 6.00 Build 0)  -->
<svg version="1.1" id="Layer_1" xmlns="http://www.w3.org/2000/svg" xmlns:xlink="http://www.w3.org/1999/xlink" x="0px" y="0px"
	 viewBox="0 0 64 69.2" style="enable-background:new 0 0 64 69.2;" xml:space="preserve">
<style type="text/css">
	.st0{fill:url(#Icon_metro-water_3_);}
	.st1{fill:url(#Icon_metro-water_4_);}
	.st2{fill:url(#Icon_metro-water_5_);}
</style>
<linearGradient id="Icon_metro-water_3_" gradientUnits="userSpaceOnUse" x1="-556.0792" y1="501.9117" x2="-555.4302" y2="500.6977" gradientTransform="matrix(63.961 0 0 -69.2204 35656.918 34726.9531)">
	<stop  offset="0" style="stop-color:#8246AF"/>
	<stop  offset="1" style="stop-color:#46C8E1"/>
</linearGradient>
<path id="Icon_metro-water" class="st0" d="M109.6,31.5c-1.8,14.2-10.8,16.8-10.8,26.7c0.1,6.2,5.2,11.1,11.4,11.1
	c6.1-0.1,11-5,11.1-11.1c0-9.9-9-12.4-10.8-26.7c-0.1-0.2-0.3-0.4-0.5-0.3C109.7,31.2,109.6,31.3,109.6,31.5L109.6,31.5z M88.8,0.3
	C87,14.6,78,17.1,78,27c0.1,6.2,5.1,11.2,11.3,11.1c6.1-0.1,11-5,11.1-11.1c0-9.9-9-12.4-10.8-26.7C89.6,0.1,89.3,0,89.1,0
	C89,0,88.8,0.2,88.8,0.3L88.8,0.3z M130.3,0.3c-1.8,14.2-10.8,16.8-10.8,26.7c0.1,6.2,5.1,11.2,11.3,11.1c6.1-0.1,11-5,11.1-11.1
	c0-9.9-9-12.4-10.8-26.7c-0.1-0.2-0.3-0.4-0.5-0.3C130.5,0,130.4,0.2,130.3,0.3L130.3,0.3z"/>
<linearGradient id="Icon_metro-water_4_" gradientUnits="userSpaceOnUse" x1="-557.2988" y1="501.9117" x2="-556.6497" y2="500.6977" gradientTransform="matrix(63.961 0 0 -69.2204 35656.918 34726.9531)">
	<stop  offset="0" style="stop-color:#8246AF"/>
	<stop  offset="1" style="stop-color:#46C8E1"/>
</linearGradient>
<path id="Icon_metro-water_2_" class="st1" d="M31.6,31.5c-1.8,14.2-10.8,16.8-10.8,26.7c0.1,6.2,5.2,11.1,11.4,11.1
	c6.1-0.1,11-5,11.1-11.1c0-9.9-9-12.4-10.8-26.7c-0.1-0.2-0.3-0.4-0.5-0.3C31.7,31.2,31.6,31.3,31.6,31.5L31.6,31.5z M10.8,0.3
	C9,14.6,0,17.1,0,27c0.1,6.2,5.1,11.2,11.3,11.1c6.1-0.1,11-5,11.1-11.1c0-9.9-9-12.4-10.8-26.7C11.6,0.1,11.3,0,11.1,0
	C11,0,10.8,0.2,10.8,0.3L10.8,0.3z M52.3,0.3C50.6,14.6,41.5,17.1,41.5,27c0.1,6.2,5.1,11.2,11.3,11.1C59,38,63.9,33.1,64,27
	c0-9.9-9-12.4-10.8-26.7C53.1,0.1,52.9,0,52.7,0C52.5,0,52.4,0.2,52.3,0.3L52.3,0.3z"/>
<linearGradient id="Icon_metro-water_5_" gradientUnits="userSpaceOnUse" x1="-558.5704" y1="501.9117" x2="-557.9213" y2="500.6977" gradientTransform="matrix(63.961 0 0 -69.2204 35656.918 34726.9531)">
	<stop  offset="0" style="stop-color:#8246AF"/>
	<stop  offset="1" style="stop-color:#46C8E1"/>
</linearGradient>
<path id="Icon_metro-water_1_" class="st2" d="M-49.8,31.5c-1.8,14.2-10.8,16.8-10.8,26.7c0.1,6.2,5.2,11.1,11.4,11.1
	c6.1-0.1,11-5,11.1-11.1c0-9.9-9-12.4-10.8-26.7c-0.1-0.2-0.3-0.4-0.5-0.3C-49.6,31.2-49.7,31.3-49.8,31.5L-49.8,31.5z M-70.5,0.3
	C-72.3,14.6-81.3,17.1-81.3,27c0.1,6.2,5.1,11.2,11.3,11.1c6.1-0.1,11-5,11.1-11.1c0-9.9-9-12.4-10.8-26.7C-69.8,0.1-70,0-70.2,0
	C-70.4,0-70.5,0.2-70.5,0.3L-70.5,0.3z M-29,0.3C-30.8,14.6-39.8,17.1-39.8,27c0.1,6.2,5.1,11.2,11.3,11.1c6.1-0.1,11-5,11.1-11.1
	c0-9.9-9-12.4-10.8-26.7C-28.2,0.1-28.4,0-28.7,0C-28.8,0-28.9,0.2-29,0.3L-29,0.3z"/>
</svg>
