<svg xmlns="http://www.w3.org/2000/svg" xmlns:xlink="http://www.w3.org/1999/xlink" width="75.004" height="65.628" viewBox="0 0 75.004 65.628">
  <defs>
    <linearGradient id="linear-gradient" x1="0.92" y1="1.274" x2="0.215" y2="-0.179" gradientUnits="objectBoundingBox">
      <stop offset="0" stop-color="#8246af"/>
      <stop offset="1" stop-color="#46c8e1"/>
    </linearGradient>
  </defs>
  <path id="Icon_awesome-server" data-name="Icon awesome-server" d="M70.316,21H4.688A4.688,4.688,0,0,1,0,16.313V6.938A4.688,4.688,0,0,1,4.688,2.25H70.316A4.688,4.688,0,0,1,75,6.938v9.375A4.688,4.688,0,0,1,70.316,21ZM63.285,8.11A3.516,3.516,0,1,0,66.8,11.625,3.516,3.516,0,0,0,63.285,8.11Zm-9.375,0a3.516,3.516,0,1,0,3.516,3.516A3.516,3.516,0,0,0,53.909,8.11ZM70.316,44.44H4.688A4.688,4.688,0,0,1,0,39.752V30.376a4.688,4.688,0,0,1,4.688-4.688H70.316A4.688,4.688,0,0,1,75,30.376v9.375A4.688,4.688,0,0,1,70.316,44.44ZM63.285,31.548A3.516,3.516,0,1,0,66.8,35.064,3.516,3.516,0,0,0,63.285,31.548Zm-9.375,0a3.516,3.516,0,1,0,3.516,3.516A3.516,3.516,0,0,0,53.909,31.548Zm16.407,36.33H4.688A4.688,4.688,0,0,1,0,63.191V53.815a4.688,4.688,0,0,1,4.688-4.688H70.316A4.688,4.688,0,0,1,75,53.815v9.375A4.688,4.688,0,0,1,70.316,67.878ZM63.285,54.987A3.516,3.516,0,1,0,66.8,58.5,3.516,3.516,0,0,0,63.285,54.987Zm-9.375,0A3.516,3.516,0,1,0,57.425,58.5,3.516,3.516,0,0,0,53.909,54.987Z" transform="translate(0 -2.25)" fill="url(#linear-gradient)"/>
</svg>
