<?xml version="1.0" encoding="utf-8"?>
<!-- Generator: Adobe Illustrator 25.3.1, SVG Export Plug-In . SVG Version: 6.00 Build 0)  -->
<svg version="1.1" id="Layer_1" xmlns="http://www.w3.org/2000/svg" xmlns:xlink="http://www.w3.org/1999/xlink" x="0px" y="0px"
	 viewBox="0 0 1920 1410.4" style="enable-background:new 0 0 1920 1410.4;" xml:space="preserve">
<style type="text/css">
	.st0{fill:#4DB9DB;}
	.st1{fill:#3E8DDD;}
	.st2{fill:#8246AF;}
</style>
<path class="st0" d="M0,208c0,0,119.6,22.6,317.2-72.8s323.2-78,382.9-64.1c59.8,13.9,114.1,86.2,313.2,236.4
	c172.4,48,145.4,46.3,291.7,51.6c146.3,5.3,267.1-47.1,290.2-81.8c23.2-34.7,146.7-78.8,324.8-96.1v-46.5c0,0-83.3-27.8-350.2,130.2
	c-221.9,107-293.3,69.6-501.3,19.6c-168.7-40.5-244-232.8-395.1-243.2C522.1,30.9,423.3,62,244,105.3S0,133,0,133V208z"/>
<path class="st1" d="M0,153.1c0,0,119.6,17.1,317.2-55.1s323.2-59,382.9-48.6c59.8,10.5,123.1,57.8,267.1,194.9
	c47.9,45.6,191.5,86.1,337.8,90s236.8-43.9,298.6-80c30.3-17.7,138.3-90.8,316.4-103.9V58.3c0,0-168.2-7-339.4,141.1
	c-137.8,119.1-392.7,142.1-507.3,45C969.8,156.8,824.4,9.7,673.3,1.9C522-6.1,437.9,12.1,244,36C63.9,58,0,56.9,0,56.9V153.1z"/>
<path class="st2" d="M0,96.2c0,0,119.6,9.9,317.2-32.1s323.2-34.4,382.9-28.3c59.8,6.1,172,40.5,267.1,142s191.5,137.4,337.8,139.7
	c146.3,2.3,267.1-85.5,290.2-100.8c23.2-15.2,146.7-114.5,324.8-122.1V37.9c0,0-168.2-4-339.4,82.1
	c-137.8,69.3-392.7,82.7-507.3,26.3C969.8,95.4,824.4,9.8,673.3,5.1C522,0.4,437.9,11.1,244,24.9C63.9,37.8,0,37.1,0,37.1V96.2z"/>
</svg>
