<?xml version="1.0" encoding="utf-8"?>
<!-- Generator: Adobe Illustrator 25.3.1, SVG Export Plug-In . SVG Version: 6.00 Build 0)  -->
<svg version="1.1" id="Layer_1" xmlns="http://www.w3.org/2000/svg" xmlns:xlink="http://www.w3.org/1999/xlink" x="0px" y="0px"
	 viewBox="0 0 1920 1410.4" style="enable-background:new 0 0 1920 1410.4;" xml:space="preserve">
<style type="text/css">
	.st0{fill:url(#SVGID_1_);}
</style>
<linearGradient id="SVGID_1_" gradientUnits="userSpaceOnUse" x1="960" y1="1410.4038" x2="960" y2="3.9759">
	<stop  offset="0" style="stop-color:#8246AF"/>
	<stop  offset="1" style="stop-color:#4DB9DB"/>
</linearGradient>
<path class="st0" d="M1580.6,120c-137.8,69.3-392.7,82.7-507.3,26.3C969.8,95.4,824.4,9.8,673.3,5.1C522,0.4,437.9,11.1,244,24.9
	C63.9,37.8,0,37.1,0,37.1v327.3v45.3v274.4v39v184.6c0,0,119.6,22.6,317.2-72.8s323.2-78,382.9-64.1c59.8,13.9,172,91.8,267.1,322.3
	s191.5,311.9,337.8,317.2c146.3,5.3,267.1-194.1,290.2-228.8c23.2-34.7,146.7-259.9,324.8-277.2V720.4v-34.6V408.1v-42.3V37.9
	C1920,37.9,1751.8,33.9,1580.6,120z"/>
</svg>
