<?xml version="1.0" encoding="utf-8"?>
<!-- Generator: Adobe Illustrator 25.3.1, SVG Export Plug-In . SVG Version: 6.00 Build 0)  -->
<svg version="1.1" id="Layer_1" xmlns="http://www.w3.org/2000/svg" xmlns:xlink="http://www.w3.org/1999/xlink" x="0px" y="0px"
	 viewBox="0 0 1920 1410.4" style="enable-background:new 0 0 1920 1410.4;" xml:space="preserve">
<style type="text/css">
	.st0{fill:#4DB9DB;}
	.st1{fill:#3E8DDD;}
	.st2{fill:#8246AF;}
</style>
<path class="st0" d="M0,907.7c0,0,119.6,22.6,317.2-72.8s323.2-78,382.9-64.1c59.8,13.9,172,91.8,267.1,322.3
	s191.5,311.9,337.8,317.2c146.3,5.3,267.1-194.1,290.2-228.8c23.2-34.7,146.7-259.9,324.8-277.2V685.8c0,0-182.1-13.9-334.5,230.5
	s-445.1,187.2-536.6,39.8S824.4,602.7,673.3,592.3c-151.2-10.4-250,20.7-429.3,64.1S0,684.1,0,684.1V907.7z"/>
<path class="st1" d="M0,723.1c0,0,119.6,17.1,317.2-55.1s323.2-59,382.9-48.6c59.8,10.5,172,69.5,267.1,244s191.5,236,337.8,240
	s267-146.8,290.2-173.1s146.7-196.8,324.8-209.9V365.8c0,0-168.2-7-339.4,141.1c-137.8,119.1-392.7,142.1-507.3,45
	c-103.5-87.7-248.9-234.8-400-242.6c-151.3-8-235.4,10.2-429.3,34.1C63.9,365.5,0,364.4,0,364.4V723.1z"/>
<path class="st2" d="M0,409.7c0,0,119.6,9.9,317.2-32.1s323.2-34.4,382.9-28.3c59.8,6.1,172,40.5,267.1,142S1158.7,628.7,1305,631
	c146.3,2.3,267.1-85.5,290.2-100.8c23.2-15.2,146.7-114.5,324.8-122.1V37.9c0,0-168.2-4-339.4,82.1
	c-137.8,69.3-392.7,82.7-507.3,26.3C969.8,95.4,824.4,9.8,673.3,5.1C522,0.4,437.9,11.1,244,24.9C63.9,37.8,0,37.1,0,37.1V409.7z"/>
</svg>
